# xmcd CD database file
#
# Track frame offsets:
#	150
#	17124
#	29331
#	50478
#	72757
#	91364
#	109256
#	124583
#	152615
#	173157
#	192903
#	214431
#
# Disc length: 3194 seconds
#
# Revision: 1
# Processed by: cddbd v1.5.2PL0 Copyright (c) Steve Scherf et al.
# Submitted via: CDex 1.51
#
DISCID=a30c780c
DTITLE=TEARDROPS BLUES JAM - Chicago Blues Session Volume 9
DYEAR=1992
DGENRE=Blues
TTITLE0=Nick Holt - What Makes A MAn Go Crazy
TTITLE1=Nick Holt - Need Some Good Lovin´
TTITLE2=Nick Holt - Five Long Years
TTITLE3=Eart Howell - Sweet Papa John
TTITLE4=Magic Slim - Hey Baby Can´t You See What You´re Doin´ To Me 
TTITLE5=Magic Slim - Red House
TTITLE6=Magic Slim - Whole Lotta Lovin´
TTITLE7=John Primer - Crawling Kingsnake
TTITLE8=John Primer - Somebody Have Mercy
TTITLE9=John Primer - Boat Dock
TTITLE10=Alabama Jr. Pettis - Blues Is A Feeling
TTITLE11=Alabama Jr. Pettis - Tramp
EXTD=YEAR: 1992
EXTT0=
EXTT1=
EXTT2=
EXTT3=
EXTT4=
EXTT5=
EXTT6=
EXTT7=
EXTT8=
EXTT9=
EXTT10=
EXTT11=
PLAYORDER=
